<svg id="logo" xmlns="http://www.w3.org/2000/svg" width="253.5" height="55.956" viewBox="0 0 253.5 55.956">
  <g id="Logo-2" data-name="Logo">
    <g id="Groupe_571" data-name="Groupe 571" transform="translate(110.826 0.663)">
      <path id="Tracé_1415" data-name="Tracé 1415" d="M227.322-354.931c0,3.641,1.749,5.578,5.059,5.578a9.493,9.493,0,0,0,5.72-2.742l.662,1.513a12.223,12.223,0,0,1-8.7,3.83c-4.964,0-8.32-3.688-8.32-8.7,0-7.422,6.147-13.048,12.056-13.048,3.592,0,5.626,1.986,5.626,4.3C239.425-360.6,236.021-356.586,227.322-354.931Zm6.1-11.393c-2.695,0-5.3,3.924-6,9.549,5.437-1.324,7.754-5.011,7.8-7.376C235.218-365.474,234.6-366.324,233.421-366.324Zm3.593-7.565-7,2.931-.284-.568,4.633-4.4c.9-.8,1.323-1.182,2.222-1.182A1.625,1.625,0,0,1,238.2-375.5,1.928,1.928,0,0,1,237.014-373.889Z" transform="translate(-221.743 377.104)" fill="#cd9700"/>
      <path id="Tracé_1416" data-name="Tracé 1416" d="M253.675-345.27c-5.721,0-7.471-4.066-6.808-7.943.709-3.782,3.782-7.564,4.3-9.882-1.608-.992-3.829-1.654-4.965.331l-.709-.426c.568-2.127,1.938-3.546,3.924-3.546,1.939,0,3.452,1.182,5.344.1h1.513c-.8,4.207-2.789,7.28-3.924,13.568-.662,3.641.473,5.3,2.742,5.3,3.451,0,7.234-4.728,7.234-11.157,0-4.775-2.317-5.011-2.128-6.572a1.709,1.709,0,0,1,1.8-1.418c1.23,0,2.789,1.371,2.789,6.9C264.785-352.882,260.719-345.27,253.675-345.27Z" transform="translate(-225.31 375.575)" fill="#cd9700"/>
      <path id="Tracé_1417" data-name="Tracé 1417" d="M288.352-345.468a3.385,3.385,0,0,1-3.593-2.836,7.45,7.45,0,0,1-5.91,3.073c-5.531,0-7.9-4.965-6.808-10.922s6.1-10.827,11.819-10.827a8.931,8.931,0,0,1,3.545.709h5.39l-2.884,16.311c-.236,1.276-.142,2.222.8,2.222a4.49,4.49,0,0,0,2.128-1.04v1.466A6.813,6.813,0,0,1,288.352-345.468ZM284-364.851c-3.167,0-5.39,3.876-6.241,8.652-.9,5.011-.283,8.509,2.506,8.509,2.175,0,4.491-2.647,5.153-6.43l1.75-9.833A5.477,5.477,0,0,0,284-364.851Z" transform="translate(-229.259 375.583)" fill="#cd9700"/>
      <path id="Tracé_1418" data-name="Tracé 1418" d="M313.36-361.4c-1.276,0-1.608-.993-1.986-2.032a2.321,2.321,0,0,0-2.364-1.75,2.814,2.814,0,0,0-2.931,2.411c-.142,1.276.8,2.364,2.6,3.924l2.412,1.985a6.183,6.183,0,0,1,2.363,5.91c-.615,3.546-3.546,5.722-7.47,5.722-4.728,0-7.754-2.79-7.422-4.681a2.118,2.118,0,0,1,2.08-1.8c1.229,0,1.654.945,2.079,2.174a3.409,3.409,0,0,0,3.452,2.27,2.958,2.958,0,0,0,3.073-2.505c.189-1.7-.852-2.743-2.789-4.491l-2.365-2.08a5.967,5.967,0,0,1-2.269-5.531c.425-2.27,2.553-5.107,7.423-5.107,3.782,0,6.146,2.128,5.957,3.829A1.863,1.863,0,0,1,313.36-361.4Z" transform="translate(-233.277 375.583)" fill="#cd9700"/>
      <path id="Tracé_1419" data-name="Tracé 1419" d="M325.106-346.955a3.426,3.426,0,0,1-3.735-3.641c0-2.079,2.695-12.434,2.695-14.137,0-.8-.189-1.275-.9-1.275a4.1,4.1,0,0,0-2.128,1.04v-1.465a6.944,6.944,0,0,1,4.491-1.844,3.437,3.437,0,0,1,3.736,3.686c0,2.081-2.695,12.388-2.695,14.09,0,.8.189,1.276.9,1.276a4.423,4.423,0,0,0,2.127-.993v1.418A6.849,6.849,0,0,1,325.106-346.955Zm3.31-29.926a2.537,2.537,0,0,1,2.6,2.883,3.255,3.255,0,0,1-3.167,2.884,2.537,2.537,0,0,1-2.6-2.884A3.256,3.256,0,0,1,328.416-376.881Z" transform="translate(-236.656 377.071)" fill="#cd9700"/>
      <path id="Tracé_1420" data-name="Tracé 1420" d="M344.131-345.076c-5.673,0-9.6-5.1-8.652-11.062s5.91-11.064,12.056-11.064c5.626,0,9.549,5.106,8.6,11.064S350.229-345.076,344.131-345.076Zm3.215-19.95c-3.073,0-5.154,3.45-6.147,8.888s.048,8.888,3.121,8.888c3.026,0,5.153-3.4,6.1-8.888C351.317-361.576,350.419-365.026,347.346-365.026Z" transform="translate(-238.804 375.617)" fill="#cd9700"/>
      <path id="Tracé_1421" data-name="Tracé 1421" d="M381.322-345.468a3.437,3.437,0,0,1-3.735-3.687c0-2.364,2.127-9.267,2.127-11.82,0-2.08-.851-2.789-2.269-2.789-1.7,0-5.3,2.789-6.288,8.7l-1.655,9.22h-5.248l2.932-16.406c.235-1.323,0-2.222-.8-2.222a3.923,3.923,0,0,0-2.128,1.041l-.048-1.466a7.072,7.072,0,0,1,4.539-1.844c2.554,0,3.877,1.655,3.641,4.586,1.844-2.931,4.728-4.823,7.423-4.823,3.641,0,5.106,2.695,5.106,5.815,0,2.695-2.175,10.59-2.175,12.151,0,.8.236,1.276.9,1.276a4.1,4.1,0,0,0,2.127-1.04l.048,1.466A7.051,7.051,0,0,1,381.322-345.468Z" transform="translate(-243.14 375.583)" fill="#cd9700"/>
    </g>
    <g id="Groupe_572" data-name="Groupe 572">
      <path id="Tracé_1422" data-name="Tracé 1422" d="M112.139-355.556h-.088l-10.339-19.776H91.33v29.122h7.491l-.263-19.9h.088l10.689,19.9h10.12v-29.122h-7.448Z" transform="translate(-91.33 377.501)" fill="#fff"/>
      <path id="Tracé_1423" data-name="Tracé 1423" d="M179.435-366.98a17.455,17.455,0,0,0-2.672-.251c-3.417,0-5.389,1.752-6.746,4.506h-.088v-4.005h-7.184v21.736h7.885v-9.178c0-4.257,2.059-6.8,5.739-6.8a9.547,9.547,0,0,1,2.673.25Z" transform="translate(-102.056 376.284)" fill="#fff"/>
      <path id="Tracé_1424" data-name="Tracé 1424" d="M201.341-377.884v12.349h-.088c-2.016-2.5-4.688-3.3-7.842-3.3-6.307,0-9.769,5.633-9.769,10.974,0,6.426,3.636,11.766,10.426,11.766,3.635,0,6.833-1.961,7.841-4.381H202v3.88h7.272v-31.292Zm-4.775,26.035c-2.979,0-4.775-2.379-4.775-5.842,0-2.878,1.708-5.382,4.775-5.382,2.891,0,4.818,2.378,4.818,5.674C201.384-354.228,199.195-351.849,196.566-351.849Z" transform="translate(-105.194 377.884)" fill="#fff"/>
      <path id="Tracé_1425" data-name="Tracé 1425" d="M141.307-367.231c-7.535,0-13.274,4.172-13.274,11.39,0,7.177,5.739,11.349,13.274,11.349s13.273-4.173,13.273-11.349C154.58-363.059,148.841-367.231,141.307-367.231Zm0,17.482c-3.636,0-5.126-2.879-5.126-6.092,0-3.254,1.49-6.133,5.126-6.133s5.125,2.879,5.125,6.133C146.432-352.628,144.943-349.749,141.307-349.749Z" transform="translate(-96.842 376.284)" fill="#fff"/>
    </g>
  </g>
  <g id="Groupe_573" data-name="Groupe 573" transform="translate(0 42.503)">
    <path id="Tracé_1426" data-name="Tracé 1426" d="M91.33-317.251v-10.407h1.994v10.407Z" transform="translate(-91.33 327.837)" fill="#fff"/>
    <path id="Tracé_1427" data-name="Tracé 1427" d="M104.973-319.176l1.987.334a3.231,3.231,0,0,1-1.21,1.664,3.547,3.547,0,0,1-2.071.574,3.375,3.375,0,0,1-2.91-1.286,4.309,4.309,0,0,1-.744-2.6,4.163,4.163,0,0,1,.979-2.934,3.227,3.227,0,0,1,2.476-1.063,3.349,3.349,0,0,1,2.656,1.111,4.93,4.93,0,0,1,.931,3.408h-5a2,2,0,0,0,.486,1.378,1.5,1.5,0,0,0,1.151.494,1.221,1.221,0,0,0,.788-.255A1.584,1.584,0,0,0,104.973-319.176Zm.111-2.015a1.927,1.927,0,0,0-.445-1.318,1.378,1.378,0,0,0-1.036-.45,1.387,1.387,0,0,0-1.078.474,1.84,1.84,0,0,0-.422,1.293Z" transform="translate(-92.636 327.361)" fill="#fff"/>
    <path id="Tracé_1428" data-name="Tracé 1428" d="M123.322-327.658h3.842a7.353,7.353,0,0,1,1.979.2,3.453,3.453,0,0,1,1.568.955,4.541,4.541,0,0,1,1,1.688,7.691,7.691,0,0,1,.342,2.461,6.773,6.773,0,0,1-.322,2.213,4.555,4.555,0,0,1-1.115,1.84,3.681,3.681,0,0,1-1.477.832,6.334,6.334,0,0,1-1.859.219h-3.953Zm2.1,1.759v6.9h1.569a5.872,5.872,0,0,0,1.27-.1,1.956,1.956,0,0,0,.848-.433,2.153,2.153,0,0,0,.55-1.008,6.723,6.723,0,0,0,.215-1.9,6.2,6.2,0,0,0-.215-1.855,2.371,2.371,0,0,0-.593-1.007,2,2,0,0,0-.976-.49,9.42,9.42,0,0,0-1.724-.1Z" transform="translate(-96.135 327.837)" fill="#fff"/>
    <path id="Tracé_1429" data-name="Tracé 1429" d="M144.55-319.684l1.987.334a3.231,3.231,0,0,1-1.21,1.664,3.546,3.546,0,0,1-2.07.574,3.376,3.376,0,0,1-2.911-1.286,4.308,4.308,0,0,1-.744-2.6,4.162,4.162,0,0,1,.979-2.934,3.227,3.227,0,0,1,2.476-1.063,3.347,3.347,0,0,1,2.656,1.111,4.93,4.93,0,0,1,.931,3.408h-5a2,2,0,0,0,.486,1.378,1.5,1.5,0,0,0,1.151.494,1.221,1.221,0,0,0,.788-.255A1.578,1.578,0,0,0,144.55-319.684Zm.111-2.015a1.927,1.927,0,0,0-.445-1.318,1.376,1.376,0,0,0-1.035-.45,1.387,1.387,0,0,0-1.079.474,1.84,1.84,0,0,0-.422,1.293Zm-2.548-4.048.98-2.122h2.237l-1.95,2.122Z" transform="translate(-98.58 327.869)" fill="#fff"/>
    <path id="Tracé_1430" data-name="Tracé 1430" d="M154.359-324.315h1.859v1.106a2.789,2.789,0,0,1,.979-.92,2.689,2.689,0,0,1,1.37-.359,2.877,2.877,0,0,1,2.229,1.032,4.143,4.143,0,0,1,.916,2.866,4.311,4.311,0,0,1-.919,2.938,2.883,2.883,0,0,1-2.238,1.047,2.522,2.522,0,0,1-1.134-.251,3.776,3.776,0,0,1-1.067-.852v3.8h-1.995Zm1.975,3.642a2.921,2.921,0,0,0,.5,1.879,1.549,1.549,0,0,0,1.23.606,1.442,1.442,0,0,0,1.154-.557,2.846,2.846,0,0,0,.462-1.828,2.73,2.73,0,0,0-.474-1.759,1.465,1.465,0,0,0-1.178-.578,1.523,1.523,0,0,0-1.214.566A2.513,2.513,0,0,0,156.334-320.673Z" transform="translate(-100.796 327.361)" fill="#fff"/>
    <path id="Tracé_1431" data-name="Tracé 1431" d="M170.9-322.015l-1.812-.326a2.818,2.818,0,0,1,1.051-1.62,3.833,3.833,0,0,1,2.213-.526,4.78,4.78,0,0,1,1.991.319,1.97,1.97,0,0,1,.915.8,4.094,4.094,0,0,1,.267,1.787l-.02,2.329a8.118,8.118,0,0,0,.1,1.465,4.263,4.263,0,0,0,.359,1.011h-1.975c-.052-.132-.116-.331-.191-.59a2.243,2.243,0,0,0-.071-.234,3.541,3.541,0,0,1-1.091.744,3.114,3.114,0,0,1-1.242.251,2.563,2.563,0,0,1-1.836-.633,2.089,2.089,0,0,1-.673-1.6,2.137,2.137,0,0,1,.307-1.139,2,2,0,0,1,.856-.768,6.754,6.754,0,0,1,1.585-.467,10.779,10.779,0,0,0,1.938-.489v-.2a1.043,1.043,0,0,0-.282-.82,1.705,1.705,0,0,0-1.071-.243,1.432,1.432,0,0,0-.833.207A1.458,1.458,0,0,0,170.9-322.015Zm2.667,1.621a12,12,0,0,1-1.214.3,3.662,3.662,0,0,0-1.086.35.832.832,0,0,0-.391.7.971.971,0,0,0,.315.725,1.088,1.088,0,0,0,.792.306,1.734,1.734,0,0,0,1.031-.354,1.263,1.263,0,0,0,.478-.66,4.028,4.028,0,0,0,.076-.976Z" transform="translate(-102.977 327.361)" fill="#fff"/>
    <path id="Tracé_1432" data-name="Tracé 1432" d="M185.53-316.775h-1.994v-7.54h1.851v1.071a3.2,3.2,0,0,1,.857-1,1.6,1.6,0,0,1,.863-.243,2.539,2.539,0,0,1,1.314.378l-.621,1.74a1.726,1.726,0,0,0-.935-.326,1.1,1.1,0,0,0-.709.231,1.552,1.552,0,0,0-.458.832,11.84,11.84,0,0,0-.167,2.528Z" transform="translate(-105.178 327.361)" fill="#fff"/>
    <path id="Tracé_1433" data-name="Tracé 1433" d="M198.225-324.756v1.593h-1.366v3.037a7.208,7.208,0,0,0,.04,1.075.418.418,0,0,0,.179.251.542.542,0,0,0,.334.1,2.58,2.58,0,0,0,.8-.191l.172,1.549a3.98,3.98,0,0,1-1.576.3,2.465,2.465,0,0,1-.976-.183,1.421,1.421,0,0,1-.633-.467,1.874,1.874,0,0,1-.283-.78,10.225,10.225,0,0,1-.064-1.406v-3.284h-.915v-1.593h.915v-1.5l2-1.167v2.664Z" transform="translate(-106.741 327.802)" fill="#fff"/>
    <path id="Tracé_1434" data-name="Tracé 1434" d="M209.5-319.176l1.986.334a3.231,3.231,0,0,1-1.21,1.664,3.544,3.544,0,0,1-2.07.574,3.378,3.378,0,0,1-2.911-1.286,4.314,4.314,0,0,1-.744-2.6,4.163,4.163,0,0,1,.98-2.934A3.226,3.226,0,0,1,208-324.487a3.349,3.349,0,0,1,2.656,1.111,4.934,4.934,0,0,1,.931,3.408h-5a2,2,0,0,0,.485,1.378,1.5,1.5,0,0,0,1.151.494,1.222,1.222,0,0,0,.789-.255A1.589,1.589,0,0,0,209.5-319.176Zm.111-2.015a1.923,1.923,0,0,0-.446-1.318,1.376,1.376,0,0,0-1.035-.45,1.389,1.389,0,0,0-1.079.474,1.835,1.835,0,0,0-.422,1.293Z" transform="translate(-108.334 327.361)" fill="#fff"/>
    <path id="Tracé_1435" data-name="Tracé 1435" d="M219.192-324.315h1.839v1.031a2.958,2.958,0,0,1,2.349-1.2,2.513,2.513,0,0,1,1.254.3,2.279,2.279,0,0,1,.876.9,3.494,3.494,0,0,1,1.071-.9,2.617,2.617,0,0,1,1.231-.3,2.761,2.761,0,0,1,1.4.338,2.061,2.061,0,0,1,.857.992,4.234,4.234,0,0,1,.207,1.56v4.822h-1.995v-4.308a3.183,3.183,0,0,0-.207-1.45.937.937,0,0,0-.852-.426,1.355,1.355,0,0,0-.789.255,1.424,1.424,0,0,0-.529.749,5.317,5.317,0,0,0-.163,1.56v3.619H223.75v-4.133a5.733,5.733,0,0,0-.107-1.422.926.926,0,0,0-.331-.473,1.051,1.051,0,0,0-.609-.155,1.458,1.458,0,0,0-.828.247,1.367,1.367,0,0,0-.529.716,5.3,5.3,0,0,0-.16,1.557v3.663h-1.995Z" transform="translate(-110.534 327.361)" fill="#fff"/>
    <path id="Tracé_1436" data-name="Tracé 1436" d="M243.465-319.176l1.987.334a3.23,3.23,0,0,1-1.21,1.664,3.546,3.546,0,0,1-2.071.574,3.375,3.375,0,0,1-2.91-1.286,4.308,4.308,0,0,1-.744-2.6,4.163,4.163,0,0,1,.979-2.934,3.227,3.227,0,0,1,2.476-1.063,3.349,3.349,0,0,1,2.656,1.111,4.929,4.929,0,0,1,.931,3.408h-5a2,2,0,0,0,.486,1.378,1.5,1.5,0,0,0,1.151.494,1.221,1.221,0,0,0,.788-.255A1.583,1.583,0,0,0,243.465-319.176Zm.111-2.015a1.927,1.927,0,0,0-.445-1.318,1.378,1.378,0,0,0-1.036-.45,1.387,1.387,0,0,0-1.078.474,1.84,1.84,0,0,0-.422,1.293Z" transform="translate(-113.436 327.361)" fill="#fff"/>
    <path id="Tracé_1437" data-name="Tracé 1437" d="M260.193-316.775H258.2v-3.851a6.019,6.019,0,0,0-.128-1.577,1.127,1.127,0,0,0-.418-.557,1.168,1.168,0,0,0-.693-.2,1.616,1.616,0,0,0-.928.283,1.456,1.456,0,0,0-.565.752,6.457,6.457,0,0,0-.151,1.732v3.416h-1.994v-7.54h1.851v1.106a3.016,3.016,0,0,1,2.485-1.278,2.967,2.967,0,0,1,1.206.239,2.024,2.024,0,0,1,.828.609,2.156,2.156,0,0,1,.391.836,6.069,6.069,0,0,1,.111,1.342Z" transform="translate(-115.659 327.361)" fill="#fff"/>
    <path id="Tracé_1438" data-name="Tracé 1438" d="M271.725-324.756v1.593h-1.366v3.037a7.216,7.216,0,0,0,.04,1.075.417.417,0,0,0,.178.251.545.545,0,0,0,.335.1,2.581,2.581,0,0,0,.8-.191l.172,1.549a3.98,3.98,0,0,1-1.576.3,2.465,2.465,0,0,1-.976-.183,1.417,1.417,0,0,1-.633-.467,1.873,1.873,0,0,1-.283-.78,10.085,10.085,0,0,1-.064-1.406v-3.284h-.915v-1.593h.915v-1.5l2-1.167v2.664Z" transform="translate(-117.78 327.802)" fill="#fff"/>
    <path id="Tracé_1439" data-name="Tracé 1439" d="M291.461-319.176l1.987.334a3.227,3.227,0,0,1-1.211,1.664,3.542,3.542,0,0,1-2.07.574,3.375,3.375,0,0,1-2.91-1.286,4.308,4.308,0,0,1-.744-2.6,4.162,4.162,0,0,1,.979-2.934,3.225,3.225,0,0,1,2.476-1.063,3.349,3.349,0,0,1,2.656,1.111,4.933,4.933,0,0,1,.931,3.408h-5a2.007,2.007,0,0,0,.485,1.378,1.5,1.5,0,0,0,1.151.494,1.222,1.222,0,0,0,.789-.255A1.589,1.589,0,0,0,291.461-319.176Zm.111-2.015a1.924,1.924,0,0,0-.446-1.318,1.375,1.375,0,0,0-1.035-.45,1.386,1.386,0,0,0-1.078.474,1.832,1.832,0,0,0-.422,1.293Z" transform="translate(-120.645 327.361)" fill="#fff"/>
    <path id="Tracé_1440" data-name="Tracé 1440" d="M300.506-318.925l2-.307a1.477,1.477,0,0,0,.522.884,1.731,1.731,0,0,0,1.09.3,1.969,1.969,0,0,0,1.167-.286.627.627,0,0,0,.263-.529.524.524,0,0,0-.144-.378,1.554,1.554,0,0,0-.669-.263,10.682,10.682,0,0,1-3.058-.972,1.939,1.939,0,0,1-.9-1.7,2.093,2.093,0,0,1,.777-1.649,3.594,3.594,0,0,1,2.4-.669,4.209,4.209,0,0,1,2.3.506,2.56,2.56,0,0,1,1.035,1.489l-1.879.351a1.182,1.182,0,0,0-.458-.677,1.688,1.688,0,0,0-.964-.231,2.158,2.158,0,0,0-1.127.219.472.472,0,0,0-.227.406.432.432,0,0,0,.2.359,7.225,7.225,0,0,0,1.863.561,5.577,5.577,0,0,1,2.226.888,1.856,1.856,0,0,1,.625,1.485,2.281,2.281,0,0,1-.869,1.784,3.853,3.853,0,0,1-2.564.744,4.216,4.216,0,0,1-2.436-.625A2.876,2.876,0,0,1,300.506-318.925Z" transform="translate(-122.746 327.361)" fill="#fff"/>
    <path id="Tracé_1441" data-name="Tracé 1441" d="M318.783-324.756v1.593h-1.365v3.037a7.385,7.385,0,0,0,.039,1.075.421.421,0,0,0,.179.251.544.544,0,0,0,.335.1,2.58,2.58,0,0,0,.8-.191l.172,1.549a3.984,3.984,0,0,1-1.577.3,2.464,2.464,0,0,1-.975-.183,1.416,1.416,0,0,1-.633-.467,1.862,1.862,0,0,1-.283-.78,10.077,10.077,0,0,1-.064-1.406v-3.284H314.5v-1.593h.915v-1.5l2-1.167v2.664Z" transform="translate(-124.848 327.802)" fill="#fff"/>
    <path id="Tracé_1442" data-name="Tracé 1442" d="M334.255-317.251v-10.407h1.995v10.407Z" transform="translate(-127.815 327.837)" fill="#fff"/>
    <path id="Tracé_1443" data-name="Tracé 1443" d="M345.029-322.523l-1.811-.326a2.817,2.817,0,0,1,1.051-1.62,3.832,3.832,0,0,1,2.213-.526,4.782,4.782,0,0,1,1.991.319,1.973,1.973,0,0,1,.915.8,4.093,4.093,0,0,1,.267,1.787l-.02,2.329a8.116,8.116,0,0,0,.1,1.465,4.261,4.261,0,0,0,.359,1.011h-1.975c-.052-.132-.116-.331-.191-.59a2.261,2.261,0,0,0-.071-.234,3.541,3.541,0,0,1-1.091.744,3.114,3.114,0,0,1-1.242.251,2.564,2.564,0,0,1-1.836-.633,2.09,2.09,0,0,1-.673-1.6,2.138,2.138,0,0,1,.307-1.139,2,2,0,0,1,.856-.768,6.755,6.755,0,0,1,1.585-.467,10.766,10.766,0,0,0,1.938-.489v-.2a1.042,1.042,0,0,0-.282-.82,1.707,1.707,0,0,0-1.072-.243,1.43,1.43,0,0,0-.832.207A1.463,1.463,0,0,0,345.029-322.523Zm2.525-3.224H346.3l-1.959-2.122h2.233Zm.143,4.845a12.071,12.071,0,0,1-1.214.3,3.676,3.676,0,0,0-1.087.35.833.833,0,0,0-.39.7.973.973,0,0,0,.315.725,1.091,1.091,0,0,0,.793.306,1.733,1.733,0,0,0,1.031-.354,1.261,1.261,0,0,0,.478-.66,4.021,4.021,0,0,0,.076-.976Z" transform="translate(-129.13 327.869)" fill="#fff"/>
    <path id="Tracé_1444" data-name="Tracé 1444" d="M381.9-322.957a2.27,2.27,0,0,0-2.155,1.6H363.233v1.4h16.512a2.27,2.27,0,0,0,2.155,1.6,2.3,2.3,0,0,0,2.3-2.3A2.3,2.3,0,0,0,381.9-322.957Z" transform="translate(-132.167 327.131)" fill="#fff"/>
  </g>
</svg>
