<svg xmlns="http://www.w3.org/2000/svg" width="100%" height="100%" viewBox="0 0 345.457 130" preserveAspectRatio="xMidYMid meet">
  <g id="logo_Nord" data-name="logo Nord" transform="translate(0 -25.664)">
    <g id="logo_nord-2" data-name="logo nord" transform="translate(0 25.664)">
      <path id="Tracé_1446" data-name="Tracé 1446" d="M117.926,95.087a2.028,2.028,0,0,0-2.068,2.1h3.962C119.75,96.059,119.229,95.087,117.926,95.087Z" transform="translate(17.217 13.933)" fill="#fff"/>
      <path id="Tracé_1447" data-name="Tracé 1447" d="M145.881,95.087a2.028,2.028,0,0,0-2.068,2.1h3.962C147.705,96.059,147.184,95.087,145.881,95.087Z" transform="translate(21.371 13.933)" fill="#fff"/>
      <path id="Tracé_1448" data-name="Tracé 1448" d="M185.79,95.087a2.028,2.028,0,0,0-2.068,2.1h3.962C187.614,96.059,187.094,95.087,185.79,95.087Z" transform="translate(27.302 13.933)" fill="#fff"/>
      <path id="Tracé_1449" data-name="Tracé 1449" d="M125.795,41.417c-9.6,0-13.536,7.6-13.536,16.2,0,8.484,3.933,16.088,13.536,16.088s13.536-7.6,13.536-16.088C139.331,49.021,135.4,41.417,125.795,41.417Z" transform="translate(16.7 6.069)" fill="#fff"/>
      <path id="Tracé_1450" data-name="Tracé 1450" d="M86.556,99.526c0,.766.642,1.1,1.477,1.1a1.974,1.974,0,0,0,1.633-.8,2.956,2.956,0,0,0,.486-1.84H89.145C88.1,97.982,86.556,98.154,86.556,99.526Z" transform="translate(12.862 14.357)" fill="#fff"/>
      <path id="Tracé_1451" data-name="Tracé 1451" d="M51.062,92.678H49.708v8.3h1.354a4.155,4.155,0,0,0,0-8.3Z" transform="translate(7.284 13.58)" fill="#fff"/>
      <path id="Tracé_1452" data-name="Tracé 1452" d="M76.96,95.178c-1.5,0-2.086,1.6-2.086,2.849,0,1.268.5,2.9,2.05,2.9,1.529,0,1.964-1.667,1.964-2.9C78.888,96.828,78.471,95.178,76.96,95.178Z" transform="translate(11.126 13.946)" fill="#fff"/>
      <path id="Tracé_1453" data-name="Tracé 1453" d="M64.88,95.087a2.027,2.027,0,0,0-2.067,2.1h3.961C66.705,96.059,66.184,95.087,64.88,95.087Z" transform="translate(9.334 13.933)" fill="#fff"/>
      <path id="Tracé_1454" data-name="Tracé 1454" d="M0,0V130H325.581V0ZM27.038,116.473H24.706v-13.03h2.332Zm10.147-1.494a6.063,6.063,0,0,0,2.977-.9v1.894a6.169,6.169,0,0,1-3.08.712c-2.96,0-4.683-1.7-4.683-4.639,0-2.59,1.375-4.726,4.16-4.726,3.325,0,4.265,2.276,4.265,5.4h-6.2A2.342,2.342,0,0,0,37.184,114.979ZM24.858,92.333V15.422H52.327L79.68,67.651h.232l-.348-52.229h19.7v76.91H72.494L44.213,39.774h-.232l.7,52.559Zm51.813,11.44-2.384,2.536H72.842l1.445-2.536Zm-18.691,12.7H54.656V104.345H57.98c3.725,0,7.014,1.251,7.014,6.065S61.705,116.473,57.98,116.473ZM74.7,114.979a6.058,6.058,0,0,0,2.976-.9v1.894a6.166,6.166,0,0,1-3.081.712c-2.96,0-4.683-1.7-4.683-4.639,0-2.59,1.375-4.726,4.16-4.726,3.324,0,4.265,2.276,4.265,5.4h-6.2A2.343,2.343,0,0,0,74.7,114.979Zm13.939,1.7a3.067,3.067,0,0,1-2.628-1.233h-.034v4.673H83.649v-12.6h2.228v1.269h.034a3.043,3.043,0,0,1,2.785-1.477c2.75,0,3.759,2.189,3.759,4.656C92.456,114.423,91.446,116.682,88.644,116.682Zm14.583-.209a10.97,10.97,0,0,1-.1-1.337h-.036a3.2,3.2,0,0,1-2.767,1.546c-1.584,0-3.133-.955-3.133-2.658a2.629,2.629,0,0,1,1.531-2.554,7.114,7.114,0,0,1,3.012-.522h1.288c0-1.442-.643-1.928-2.018-1.928a4.7,4.7,0,0,0-2.768.972l-.069-2a8.025,8.025,0,0,1,3.115-.678c2.732,0,3.865,1.129,3.865,3.77v1.147c0,.9.016,1.581.034,2.241.017.679.052,1.3.1,2Zm13.018-6.742a2.4,2.4,0,0,0-1.045-.19c-1.9,0-1.9,2.363-1.9,3.648v3.284h-2.332v-8.949h2.071v2.034h.036a2.741,2.741,0,0,1,2.453-2.241,2.539,2.539,0,0,1,.714.07Zm8.527,6.95a2.634,2.634,0,0,1-2.838-2.9v-4.553h-1.723v-1.7h1.723v-1.79l2.333-.748v2.537h2.072v1.7h-2.072v4.17c0,.764.209,1.477,1.1,1.477a2.075,2.075,0,0,0,1.061-.244l.07,1.842A6.159,6.159,0,0,1,124.772,116.682Zm10.859-1.7a6.062,6.062,0,0,0,2.977-.9v1.894a6.173,6.173,0,0,1-3.082.712c-2.959,0-4.682-1.7-4.682-4.639,0-2.59,1.375-4.726,4.159-4.726,3.325,0,4.265,2.276,4.265,5.4h-6.2A2.343,2.343,0,0,0,135.631,114.979Zm-28.252-51.3c0-19.062,15.183-30.08,35.119-30.08s35.118,11.018,35.118,30.08c0,18.953-15.183,29.971-35.118,29.971S107.379,82.637,107.379,63.684Zm50.32,52.79h-2.332v-5.335c0-.834,0-2.014-1.34-2.014-1.549,0-1.741,1.842-1.741,3.005v4.344h-2.333v-5.335c0-.834,0-2.014-1.339-2.014-1.549,0-1.741,1.842-1.741,3.005v4.344H144.54v-8.949h2.177v1.252h.034a3.159,3.159,0,0,1,2.662-1.46,2.615,2.615,0,0,1,2.646,1.58,3.075,3.075,0,0,1,2.8-1.58c2.21,0,2.837,1.511,2.837,3.508Zm10.04-1.494a6.063,6.063,0,0,0,2.977-.9v1.894a6.173,6.173,0,0,1-3.082.712c-2.959,0-4.682-1.7-4.682-4.639,0-2.59,1.375-4.726,4.159-4.726,3.325,0,4.265,2.276,4.265,5.4h-6.2A2.343,2.343,0,0,0,167.739,114.979Zm17.177,1.494h-2.333v-4.779c0-1.094-.017-2.571-1.514-2.571-1.688,0-2.054,1.824-2.054,2.972v4.377h-2.333v-8.949h2.211v1.218h.035a3.347,3.347,0,0,1,2.941-1.425c2.124,0,3.046,1.494,3.046,3.508Zm9.484.209a2.633,2.633,0,0,1-2.837-2.9v-4.553h-1.724v-1.7h1.724v-1.79l2.332-.748v2.537h2.071v1.7h-2.071v4.17c0,.764.209,1.477,1.1,1.477a2.075,2.075,0,0,0,1.061-.244l.07,1.842A6.154,6.154,0,0,1,194.4,116.682Zm19.178-1.7a6.055,6.055,0,0,0,2.976-.9v1.894a6.162,6.162,0,0,1-3.08.712c-2.959,0-4.682-1.7-4.682-4.639,0-2.59,1.375-4.726,4.159-4.726,3.325,0,4.266,2.276,4.266,5.4h-6.2A2.343,2.343,0,0,0,213.578,114.979Zm11.1,1.7a10.43,10.43,0,0,1-2.647-.383l.141-1.91a5.136,5.136,0,0,0,2.3.59c.592,0,1.532-.227,1.532-1.1,0-1.754-4.056-.555-4.056-3.786,0-1.928,1.688-2.78,3.516-2.78a10.729,10.729,0,0,1,2.542.33l-.157,1.754a5.7,5.7,0,0,0-2.088-.382c-.627,0-1.375.226-1.375.989,0,1.425,4.055.522,4.055,3.755C228.439,115.847,226.578,116.682,224.681,116.682Zm3.86-65.89a25.281,25.281,0,0,0-7.071-.66c-9.735,0-15.184,6.721-15.184,17.96V92.333H185.425V34.925h19.007V45.5h.233c3.593-7.272,8.807-11.9,17.848-11.9a46.4,46.4,0,0,1,7.071.662Zm8.79,65.89a2.634,2.634,0,0,1-2.836-2.9v-4.553h-1.724v-1.7H234.5v-1.79l2.332-.748v2.537H238.9v1.7h-2.071v4.17c0,.764.208,1.477,1.1,1.477a2.078,2.078,0,0,0,1.061-.244l.07,1.842A6.157,6.157,0,0,1,237.332,116.682Zm17.35-.209h-2.333v-13.03h2.333Zm11.4,0a11.266,11.266,0,0,1-.1-1.337h-.034a3.206,3.206,0,0,1-2.768,1.546c-1.583,0-3.133-.955-3.133-2.658a2.627,2.627,0,0,1,1.533-2.554,7.1,7.1,0,0,1,3.01-.522h1.288c0-1.442-.644-1.928-2.019-1.928a4.7,4.7,0,0,0-2.767.972l-.069-2a8.02,8.02,0,0,1,3.115-.678c2.734,0,3.865,1.129,3.865,3.77v1.147c0,.9.016,1.581.033,2.241.018.679.053,1.3.1,2Zm-4.525-12.7h2.384l1.445,2.536h-1.445Zm35.543,9.491a2.646,2.646,0,0,1-2.513-1.861h-17.46v-1.625h17.46a2.648,2.648,0,0,1,2.513-1.861,2.673,2.673,0,1,1,0,5.346Zm3.115-20.93h-19.24V82.087h-.233c-2.665,6.391-11.126,11.57-20.747,11.57-17.965,0-27.584-14.1-27.584-31.073,0-14.1,9.158-28.98,25.846-28.98,8.344,0,15.414,2.095,20.748,8.7h.23V9.694h20.98Z" fill="#fff"/>
      <path id="Tracé_1455" data-name="Tracé 1455" d="M228.343,99.526c0,.766.643,1.1,1.478,1.1a1.974,1.974,0,0,0,1.633-.8,2.956,2.956,0,0,0,.486-1.84h-1.008C229.891,97.982,228.343,98.154,228.343,99.526Z" transform="translate(34.04 14.357)" fill="#fff"/>
      <path id="Tracé_1456" data-name="Tracé 1456" d="M233.725,42.572c-8.1,0-12.609,6.611-12.609,14.213,0,9.147,4.742,15.427,12.609,15.427,6.941,0,12.726-6.28,12.726-14.655C246.452,48.853,241.361,42.572,233.725,42.572Z" transform="translate(32.981 6.238)" fill="#fff"/>
      <path id="Tracé_1457" data-name="Tracé 1457" d="M32.214,95.087a2.027,2.027,0,0,0-2.067,2.1h3.961C34.038,96.059,33.517,95.087,32.214,95.087Z" transform="translate(4.417 13.933)" fill="#fff"/>
    </g>
    <g id="externe" transform="translate(333.024 142.664)">
      <rect id="Rectangle_270" data-name="Rectangle 270" width="6.955" height="6.955" transform="translate(0 4.597)" fill="none" stroke="#fff" stroke-linecap="round" stroke-linejoin="round" stroke-width="2"/>
      <path id="Tracé_1063" data-name="Tracé 1063" d="M558.968,330.709h4.992V335.7" transform="translate(-552.527 -330.709)" fill="none" stroke="#fff" stroke-linejoin="round" stroke-width="2"/>
    </g>
  </g>
</svg>
