<?xml version="1.0" encoding="utf-8"?>

<svg version="1.1" id="Calque_1" 
	 xmlns="http://www.w3.org/2000/svg" xmlns:xlink="http://www.w3.org/1999/xlink" x="0px" y="0px" viewBox="0 0 283.46 113.39"
	 style="enable-background:new 0 0 283.46 113.39;" xml:space="preserve">
<style type="text/css">
	.st0{fill:#FFFFFF;}
	.st1{fill:#1D1D1B;}
	.st2{fill:#139FC6;}
</style>
		<g>
			<path class="st0" d="M117.66,95.09c-1.14,0-1.71,0.79-1.8,1.83h3.46C119.25,95.93,118.8,95.09,117.66,95.09z"/>
			<path class="st0" d="M145.62,95.09c-1.14,0-1.71,0.79-1.8,1.83h3.46C147.21,95.93,146.75,95.09,145.62,95.09z"/>
			<path class="st0" d="M185.53,95.09c-1.14,0-1.71,0.79-1.8,1.83h3.46C187.12,95.93,186.66,95.09,185.53,95.09z"/>
			<path class="st0" d="M124.06,41.42c-8.38,0-11.81,6.63-11.81,14.13c0,7.4,3.43,14.03,11.81,14.03c8.38,0,11.81-6.63,11.81-14.03
				C135.87,48.05,132.44,41.42,124.06,41.42z"/>
			<path class="st0" d="M86.56,99.33c0,0.67,0.56,0.96,1.29,0.96c0.62,0,1.11-0.27,1.42-0.7c0.33-0.44,0.42-1,0.42-1.61h-0.88
				C87.9,97.98,86.56,98.13,86.56,99.33z"/>
			<path class="st0" d="M50.89,92.68h-1.18v7.24h1.18c1.77,0,3.49-1.32,3.49-3.62C54.38,94,52.66,92.68,50.89,92.68z"/>
			<path class="st0" d="M76.69,95.18c-1.3,0-1.82,1.39-1.82,2.48c0,1.11,0.44,2.53,1.79,2.53c1.33,0,1.71-1.45,1.71-2.53
				C78.37,96.62,78.01,95.18,76.69,95.18z"/>
			<path class="st0" d="M64.62,95.09c-1.14,0-1.71,0.79-1.8,1.83h3.46C66.21,95.93,65.75,95.09,64.62,95.09z"/>
			<path class="st0" d="M0,0v113.39h283.46V0H0z M23.54,101.59h-2.03V90.22h2.03V101.59z M32.37,100.29c0.99,0,1.83-0.36,2.59-0.79
				v1.65c-0.74,0.41-1.59,0.62-2.68,0.62c-2.58,0-4.08-1.48-4.08-4.05c0-2.26,1.2-4.12,3.62-4.12c2.89,0,3.71,1.99,3.71,4.71h-5.4
				C30.24,99.57,31.12,100.29,32.37,100.29z M21.64,80.53V13.45l23.92,0L69.37,59h0.2l-0.3-45.55l17.16,0v67.08H63.12L38.49,34.69
				h-0.2l0.61,45.84H21.64z M66.75,90.51l-2.08,2.21h-1.26l1.26-2.21H66.75z M50.48,101.59h-2.89V91.01h2.89
				c3.24,0,6.11,1.09,6.11,5.29C56.59,100.5,53.72,101.59,50.48,101.59z M65.04,100.29c0.99,0,1.83-0.36,2.59-0.79v1.65
				c-0.74,0.41-1.59,0.62-2.68,0.62c-2.58,0-4.08-1.48-4.08-4.05c0-2.26,1.2-4.12,3.62-4.12c2.89,0,3.71,1.99,3.71,4.71h-5.39
				C62.9,99.57,63.78,100.29,65.04,100.29z M77.18,101.77c-0.86,0-1.58-0.21-2.29-1.07h-0.03v4.08h-2.03V93.78h1.94v1.11h0.03
				c0.45-0.76,1.23-1.29,2.42-1.29c2.39,0,3.27,1.91,3.27,4.06C80.5,99.8,79.62,101.77,77.18,101.77z M89.87,101.59
				c-0.08-0.41-0.08-0.92-0.09-1.17h-0.03c-0.47,0.86-1.48,1.35-2.41,1.35c-1.38,0-2.73-0.83-2.73-2.32c0-1.17,0.56-1.85,1.33-2.23
				c0.77-0.38,1.77-0.45,2.62-0.45h1.12c0-1.26-0.56-1.68-1.76-1.68c-0.86,0-1.73,0.33-2.41,0.85l-0.06-1.74
				c0.79-0.36,1.85-0.59,2.71-0.59c2.38,0,3.36,0.99,3.36,3.29v1c0,0.79,0.01,1.38,0.03,1.96c0.02,0.59,0.05,1.14,0.09,1.74H89.87z
				 M101.21,95.71c-0.18-0.1-0.55-0.17-0.91-0.17c-1.65,0-1.65,2.06-1.65,3.18v2.86h-2.03v-7.8h1.8v1.77h0.03
				c0.09-0.73,0.92-1.96,2.14-1.96c0.2,0,0.41,0,0.62,0.06V95.71z M108.63,101.77c-1.59,0-2.47-0.99-2.47-2.53v-3.97h-1.5v-1.49h1.5
				v-1.56l2.03-0.65v2.21h1.8v1.49h-1.8v3.64c0,0.67,0.18,1.29,0.96,1.29c0.36,0,0.71-0.08,0.92-0.21l0.06,1.61
				C109.71,101.71,109.24,101.77,108.63,101.77z M118.09,100.29c0.99,0,1.83-0.36,2.59-0.79v1.65c-0.74,0.41-1.59,0.62-2.68,0.62
				c-2.58,0-4.08-1.48-4.08-4.05c0-2.26,1.2-4.12,3.62-4.12c2.89,0,3.71,1.99,3.71,4.71h-5.4
				C115.95,99.57,116.83,100.29,118.09,100.29z M93.49,55.55c0-16.63,13.22-26.24,30.58-26.24c17.36,0,30.57,9.61,30.57,26.24
				c0,16.53-13.22,26.14-30.57,26.14C106.71,81.69,93.49,72.08,93.49,55.55z M137.3,101.59h-2.03v-4.65c0-0.73,0-1.76-1.17-1.76
				c-1.35,0-1.52,1.61-1.52,2.62v3.79h-2.03v-4.65c0-0.73,0-1.76-1.17-1.76c-1.35,0-1.52,1.61-1.52,2.62v3.79h-2.03v-7.8h1.89v1.09
				h0.03c0.64-0.96,1.56-1.27,2.32-1.27c1.09,0,1.86,0.41,2.3,1.38c0.47-0.94,1.49-1.38,2.44-1.38c1.92,0,2.47,1.32,2.47,3.06
				V101.59z M146.04,100.29c0.99,0,1.83-0.36,2.59-0.79v1.65c-0.74,0.41-1.59,0.62-2.68,0.62c-2.58,0-4.08-1.48-4.08-4.05
				c0-2.26,1.2-4.12,3.62-4.12c2.89,0,3.71,1.99,3.71,4.71h-5.4C143.9,99.57,144.78,100.29,146.04,100.29z M161,101.59h-2.03v-4.17
				c0-0.95-0.02-2.24-1.32-2.24c-1.47,0-1.79,1.59-1.79,2.59v3.82h-2.03v-7.8h1.92v1.06h0.03c0.64-0.89,1.5-1.24,2.56-1.24
				c1.85,0,2.65,1.3,2.65,3.06V101.59z M169.25,101.77c-1.59,0-2.47-0.99-2.47-2.53v-3.97h-1.5v-1.49h1.5v-1.56l2.03-0.65v2.21h1.8
				v1.49h-1.8v3.64c0,0.67,0.18,1.29,0.95,1.29c0.36,0,0.71-0.08,0.92-0.21l0.06,1.61C170.33,101.71,169.86,101.77,169.25,101.77z
				 M185.95,100.29c0.99,0,1.83-0.36,2.59-0.79v1.65c-0.74,0.41-1.59,0.62-2.68,0.62c-2.58,0-4.08-1.48-4.08-4.05
				c0-2.26,1.2-4.12,3.62-4.12c2.89,0,3.71,1.99,3.71,4.71h-5.4C183.81,99.57,184.69,100.29,185.95,100.29z M195.62,101.77
				c-0.77,0-1.56-0.14-2.3-0.33l0.12-1.67c0.64,0.32,1.3,0.52,2,0.52c0.51,0,1.33-0.2,1.33-0.96c0-1.53-3.53-0.48-3.53-3.3
				c0-1.68,1.47-2.42,3.06-2.42c0.95,0,1.58,0.15,2.21,0.29l-0.14,1.53c-0.62-0.21-1.07-0.33-1.82-0.33c-0.55,0-1.2,0.2-1.2,0.86
				c0,1.24,3.53,0.46,3.53,3.27C198.89,101.04,197.27,101.77,195.62,101.77z M198.98,44.3c-2.02-0.58-4.04-0.58-6.16-0.58
				c-8.48,0-13.22,5.86-13.22,15.67v21.14h-18.16V30.46h16.55v9.23h0.2c3.13-6.34,7.67-10.38,15.54-10.38
				c2.12,0,4.34,0.29,6.16,0.58L198.98,44.3z M206.63,101.77c-1.59,0-2.47-0.99-2.47-2.53v-3.97h-1.5v-1.49h1.5v-1.56l2.03-0.65
				v2.21h1.8v1.49h-1.8v3.64c0,0.67,0.18,1.29,0.95,1.29c0.36,0,0.71-0.08,0.92-0.21l0.06,1.61
				C207.71,101.71,207.24,101.77,206.63,101.77z M221.74,101.59h-2.03V90.22h2.03V101.59z M231.66,101.59
				c-0.08-0.41-0.08-0.92-0.09-1.17h-0.03c-0.47,0.86-1.49,1.35-2.41,1.35c-1.38,0-2.73-0.83-2.73-2.32c0-1.17,0.56-1.85,1.33-2.23
				c0.77-0.38,1.77-0.45,2.62-0.45h1.12c0-1.26-0.56-1.68-1.76-1.68c-0.86,0-1.73,0.33-2.41,0.85l-0.06-1.74
				c0.79-0.36,1.85-0.59,2.71-0.59c2.38,0,3.36,0.99,3.36,3.29v1c0,0.79,0.01,1.38,0.03,1.96c0.02,0.59,0.05,1.14,0.09,1.74H231.66z
				 M227.72,90.51h2.08l1.26,2.21h-1.26L227.72,90.51z M258.67,98.79c-1.04,0-1.88-0.69-2.19-1.62h-15.2v-1.42h15.2
				c0.3-0.93,1.15-1.62,2.19-1.62c1.29,0,2.33,1.04,2.33,2.33C261,97.75,259.95,98.79,258.67,98.79z M261.38,80.53l-16.75,0V71.6
				h-0.2c-2.32,5.57-9.69,10.09-18.06,10.09c-15.64,0-24.02-12.3-24.02-27.1c0-12.3,7.97-25.28,22.5-25.28
				c7.27,0,13.42,1.83,18.06,7.59h0.2V8.45l18.27,0V80.53z"/>
			<path class="st0" d="M228.34,99.33c0,0.67,0.56,0.96,1.29,0.96c0.62,0,1.11-0.27,1.42-0.7c0.33-0.44,0.42-1,0.42-1.61h-0.88
				C229.69,97.98,228.34,98.13,228.34,99.33z"/>
			<path class="st0" d="M232.11,42.57c-7.06,0-11,5.77-11,12.4c0,7.98,4.14,13.46,11,13.46c6.05,0,11.1-5.48,11.1-12.78
				C243.21,48.05,238.77,42.57,232.11,42.57z"/>
			<path class="st0" d="M31.95,95.09c-1.14,0-1.71,0.79-1.8,1.83h3.46C33.54,95.93,33.09,95.09,31.95,95.09z"/>
		</g>

</svg>
