<svg width="17.992" height="27.408" viewBox="0 0 17.992 27.408" version="1.1" id="svg8"
  xmlns="http://www.w3.org/2000/svg" xmlns:svg="http://www.w3.org/2000/svg">
  <ellipse id="Ellipse_37" data-name="Ellipse 37" cx="9.0030003" cy="4.6589999" rx="6.2410002" ry="3.9089999"
    fill="none" stroke="#06475e" stroke-linecap="round" stroke-linejoin="round" stroke-width="1.5" />
  <path id="Tracé_1990" data-name="Tracé 1990"
    d="m 4.06,10.77 a 2.486,2.486 0 0 0 -0.7,0.36 5.234,5.234 0 0 0 -2.61,4.266 c 0,3.228 3.692,5.845 8.246,5.845 4.554,0 8.246,-2.617 8.246,-5.845 a 5.275,5.275 0 0 0 -2.7,-4.326 3,3 0 0 0 -0.747,-0.328"
    fill="none" stroke="#06475e" stroke-linecap="round" stroke-linejoin="round" stroke-width="1.5" />
  <line id="Ligne_31" data-name="Ligne 31" y2="26.657999" fill="none" stroke="#06475e" stroke-linecap="round"
    stroke-linejoin="round" stroke-width="1.5" x1="9.0030003" y1="21.386999" x2="9.0030003" />
  <path id="Tracé_1991" data-name="Tracé 1991" d="m 11.575,15.711 a 2.811,2.811 0 0 0 1.988,-2.359 v -5.9" fill="none"
    stroke="#06475e" stroke-linecap="round" stroke-linejoin="round" stroke-width="1.5" />
  <path id="Tracé_1992" data-name="Tracé 1992" d="m 4.443,7.326 v 6.023 a 2.811,2.811 0 0 0 1.988,2.359" fill="none"
    stroke="#06475e" stroke-linecap="round" stroke-linejoin="round" stroke-width="1.5" />
</svg>