<svg xmlns="http://www.w3.org/2000/svg" viewBox="0 0 345.457 130"><g data-name="logo Nord"><g data-name="logo nord" fill="#fff"><path data-name="Tracé 1446" d="M135.143 109.02a2.028 2.028 0 0 0-2.068 2.1h3.962c-.07-1.128-.591-2.1-1.894-2.1Z"/><path data-name="Tracé 1447" d="M167.252 109.02a2.028 2.028 0 0 0-2.068 2.1h3.962c-.07-1.128-.591-2.1-1.894-2.1Z"/><path data-name="Tracé 1448" d="M213.092 109.02a2.028 2.028 0 0 0-2.068 2.1h3.962c-.07-1.128-.59-2.1-1.894-2.1Z"/><path data-name="Tracé 1449" d="M142.495 47.486c-9.6 0-13.536 7.6-13.536 16.2 0 8.484 3.933 16.088 13.536 16.088s13.536-7.6 13.536-16.088c0-8.596-3.931-16.2-13.536-16.2Z"/><path data-name="Tracé 1450" d="M99.418 113.883c0 .766.642 1.1 1.477 1.1a1.974 1.974 0 0 0 1.633-.8 2.956 2.956 0 0 0 .486-1.84h-1.007c-1.045-.004-2.589.168-2.589 1.54Z"/><path data-name="Tracé 1451" d="M58.346 106.258h-1.354v8.3h1.354a4.155 4.155 0 0 0 0-8.3Z"/><path data-name="Tracé 1452" d="M88.086 109.124c-1.5 0-2.086 1.6-2.086 2.849 0 1.268.5 2.9 2.05 2.9 1.529 0 1.964-1.667 1.964-2.9 0-1.199-.417-2.849-1.928-2.849Z"/><path data-name="Tracé 1453" d="M74.214 109.02a2.027 2.027 0 0 0-2.067 2.1h3.961c-.069-1.128-.59-2.1-1.894-2.1Z"/><path data-name="Tracé 1454" d="M0 0v130h325.581V0Zm27.038 116.473h-2.332v-13.03h2.332Zm10.147-1.494a6.063 6.063 0 0 0 2.977-.9v1.894a6.169 6.169 0 0 1-3.08.712c-2.96 0-4.683-1.7-4.683-4.639 0-2.59 1.375-4.726 4.16-4.726 3.325 0 4.265 2.276 4.265 5.4h-6.2a2.342 2.342 0 0 0 2.56 2.259ZM24.858 92.333V15.422h27.469L79.68 67.651h.232l-.348-52.229h19.7v76.91h-26.77L44.213 39.774h-.232l.7 52.559Zm51.813 11.44-2.384 2.536h-1.445l1.445-2.536Zm-18.691 12.7h-3.324v-12.128h3.324c3.725 0 7.014 1.251 7.014 6.065s-3.289 6.063-7.014 6.063Zm16.72-1.494a6.058 6.058 0 0 0 2.976-.9v1.894a6.166 6.166 0 0 1-3.081.712c-2.96 0-4.683-1.7-4.683-4.639 0-2.59 1.375-4.726 4.16-4.726 3.324 0 4.265 2.276 4.265 5.4h-6.2a2.343 2.343 0 0 0 2.563 2.259Zm13.939 1.7a3.067 3.067 0 0 1-2.628-1.233h-.034v4.673h-2.328v-12.6h2.228v1.269h.034a3.043 3.043 0 0 1 2.785-1.477c2.75 0 3.759 2.189 3.759 4.656.001 2.456-1.009 4.715-3.811 4.715Zm14.583-.209a10.97 10.97 0 0 1-.1-1.337h-.036a3.2 3.2 0 0 1-2.767 1.546c-1.584 0-3.133-.955-3.133-2.658a2.629 2.629 0 0 1 1.531-2.554 7.114 7.114 0 0 1 3.012-.522h1.288c0-1.442-.643-1.928-2.018-1.928a4.7 4.7 0 0 0-2.768.972l-.069-2a8.025 8.025 0 0 1 3.115-.678c2.732 0 3.865 1.129 3.865 3.77v1.147c0 .9.016 1.581.034 2.241.017.679.052 1.3.1 2Zm13.018-6.742a2.4 2.4 0 0 0-1.045-.19c-1.9 0-1.9 2.363-1.9 3.648v3.284h-2.332v-8.949h2.071v2.034h.036a2.741 2.741 0 0 1 2.453-2.241 2.539 2.539 0 0 1 .714.07Zm8.527 6.95a2.634 2.634 0 0 1-2.838-2.9v-4.553h-1.723v-1.7h1.723v-1.79l2.333-.748v2.537h2.072v1.7h-2.072v4.17c0 .764.209 1.477 1.1 1.477a2.075 2.075 0 0 0 1.061-.244l.07 1.842a6.159 6.159 0 0 1-1.721.213Zm10.859-1.7a6.062 6.062 0 0 0 2.977-.9v1.894a6.173 6.173 0 0 1-3.082.712c-2.959 0-4.682-1.7-4.682-4.639 0-2.59 1.375-4.726 4.159-4.726 3.325 0 4.265 2.276 4.265 5.4h-6.2a2.343 2.343 0 0 0 2.568 2.26Zm-28.252-51.3c0-19.062 15.183-30.08 35.119-30.08s35.118 11.018 35.118 30.08c0 18.953-15.183 29.971-35.118 29.971s-35.114-11.012-35.114-29.965Zm50.32 52.79h-2.332v-5.335c0-.834 0-2.014-1.34-2.014-1.549 0-1.741 1.842-1.741 3.005v4.344h-2.333v-5.335c0-.834 0-2.014-1.339-2.014-1.549 0-1.741 1.842-1.741 3.005v4.344h-2.328v-8.949h2.177v1.252h.034a3.159 3.159 0 0 1 2.662-1.46 2.615 2.615 0 0 1 2.646 1.58 3.075 3.075 0 0 1 2.8-1.58c2.21 0 2.837 1.511 2.837 3.508Zm10.04-1.494a6.063 6.063 0 0 0 2.977-.9v1.894a6.173 6.173 0 0 1-3.082.712c-2.959 0-4.682-1.7-4.682-4.639 0-2.59 1.375-4.726 4.159-4.726 3.325 0 4.265 2.276 4.265 5.4h-6.2a2.343 2.343 0 0 0 2.568 2.264Zm17.177 1.494h-2.333v-4.779c0-1.094-.017-2.571-1.514-2.571-1.688 0-2.054 1.824-2.054 2.972v4.377h-2.333v-8.949h2.211v1.218h.035a3.347 3.347 0 0 1 2.941-1.425c2.124 0 3.046 1.494 3.046 3.508Zm9.484.209a2.633 2.633 0 0 1-2.837-2.9v-4.553h-1.724v-1.7h1.724v-1.79l2.332-.748v2.537h2.071v1.7h-2.071v4.17c0 .764.209 1.477 1.1 1.477a2.075 2.075 0 0 0 1.061-.244l.07 1.842a6.154 6.154 0 0 1-1.721.214Zm19.178-1.7a6.055 6.055 0 0 0 2.976-.9v1.894a6.162 6.162 0 0 1-3.08.712c-2.959 0-4.682-1.7-4.682-4.639 0-2.59 1.375-4.726 4.159-4.726 3.325 0 4.266 2.276 4.266 5.4h-6.2a2.343 2.343 0 0 0 2.566 2.261Zm11.1 1.7a10.43 10.43 0 0 1-2.647-.383l.141-1.91a5.136 5.136 0 0 0 2.3.59c.592 0 1.532-.227 1.532-1.1 0-1.754-4.056-.555-4.056-3.786 0-1.928 1.688-2.78 3.516-2.78a10.729 10.729 0 0 1 2.542.33l-.157 1.754a5.7 5.7 0 0 0-2.088-.382c-.627 0-1.375.226-1.375.989 0 1.425 4.055.522 4.055 3.755.003 2.093-1.858 2.928-3.755 2.928Zm3.86-65.89a25.281 25.281 0 0 0-7.071-.66c-9.735 0-15.184 6.721-15.184 17.96v24.246h-20.853V34.925h19.007V45.5h.233c3.593-7.272 8.807-11.9 17.848-11.9a46.4 46.4 0 0 1 7.071.662Zm8.79 65.89a2.634 2.634 0 0 1-2.836-2.9v-4.553h-1.724v-1.7h1.737v-1.79l2.332-.748v2.537h2.068v1.7h-2.071v4.17c0 .764.208 1.477 1.1 1.477a2.078 2.078 0 0 0 1.061-.244l.07 1.842a6.157 6.157 0 0 1-1.728.214Zm17.35-.209h-2.333v-13.03h2.333Zm11.4 0a11.266 11.266 0 0 1-.1-1.337h-.034a3.206 3.206 0 0 1-2.768 1.546c-1.583 0-3.133-.955-3.133-2.658a2.627 2.627 0 0 1 1.533-2.554 7.1 7.1 0 0 1 3.01-.522h1.288c0-1.442-.644-1.928-2.019-1.928a4.7 4.7 0 0 0-2.767.972l-.069-2a8.02 8.02 0 0 1 3.115-.678c2.734 0 3.865 1.129 3.865 3.77v1.147c0 .9.016 1.581.033 2.241.018.679.053 1.3.1 2Zm-4.525-12.7h2.384l1.445 2.536h-1.445Zm35.543 9.491a2.646 2.646 0 0 1-2.513-1.861h-17.46v-1.625h17.46a2.648 2.648 0 0 1 2.513-1.861 2.673 2.673 0 1 1 0 5.346Zm3.115-20.93h-19.24V82.087h-.233c-2.665 6.391-11.126 11.57-20.747 11.57-17.965 0-27.584-14.1-27.584-31.073 0-14.1 9.158-28.98 25.846-28.98 8.344 0 15.414 2.095 20.748 8.7h.23V9.694h20.98Z"/><path data-name="Tracé 1455" d="M262.383 113.883c0 .766.643 1.1 1.478 1.1a1.974 1.974 0 0 0 1.633-.8 2.956 2.956 0 0 0 .486-1.84h-1.008c-1.041-.004-2.589.168-2.589 1.54Z"/><path data-name="Tracé 1456" d="M266.706 48.81c-8.1 0-12.609 6.611-12.609 14.213 0 9.147 4.742 15.427 12.609 15.427 6.941 0 12.726-6.28 12.726-14.655.001-8.704-5.09-14.985-12.726-14.985Z"/><path data-name="Tracé 1457" d="M36.631 109.02a2.027 2.027 0 0 0-2.067 2.1h3.961c-.07-1.128-.591-2.1-1.894-2.1Z"/></g><g fill="none" stroke="#fff" stroke-linejoin="round" stroke-width="2"><path data-name="Rectangle 270" stroke-linecap="round" d="M333.024 121.597h6.955v6.955h-6.955z"/><path data-name="Tracé 1063" d="M339.465 117h4.992v4.991"/></g></g></svg>