<svg version="1.1" id="Calque_1" xmlns="http://www.w3.org/2000/svg" x="0" y="0" viewBox="0 0 283.46 113.39" style="enable-background:new 0 0 283.46 113.39" xml:space="preserve"><style>.st0{fill:#fff}</style><path class="st0" d="M117.66 95.09c-1.14 0-1.71.79-1.8 1.83h3.46c-.07-.99-.52-1.83-1.66-1.83zM145.62 95.09c-1.14 0-1.71.79-1.8 1.83h3.46c-.07-.99-.53-1.83-1.66-1.83zM185.53 95.09c-1.14 0-1.71.79-1.8 1.83h3.46c-.07-.99-.53-1.83-1.66-1.83zM124.06 41.42c-8.38 0-11.81 6.63-11.81 14.13 0 7.4 3.43 14.03 11.81 14.03s11.81-6.63 11.81-14.03c0-7.5-3.43-14.13-11.81-14.13zM86.56 99.33c0 .67.56.96 1.29.96.62 0 1.11-.27 1.42-.7.33-.44.42-1 .42-1.61h-.88c-.91 0-2.25.15-2.25 1.35zM50.89 92.68h-1.18v7.24h1.18c1.77 0 3.49-1.32 3.49-3.62s-1.72-3.62-3.49-3.62zM76.69 95.18c-1.3 0-1.82 1.39-1.82 2.48 0 1.11.44 2.53 1.79 2.53 1.33 0 1.71-1.45 1.71-2.53 0-1.04-.36-2.48-1.68-2.48zM64.62 95.09c-1.14 0-1.71.79-1.8 1.83h3.46c-.07-.99-.53-1.83-1.66-1.83z"/><path class="st0" d="M0 0v113.39h283.46V0H0zm23.54 101.59h-2.03V90.22h2.03v11.37zm8.83-1.3c.99 0 1.83-.36 2.59-.79v1.65c-.74.41-1.59.62-2.68.62-2.58 0-4.08-1.48-4.08-4.05 0-2.26 1.2-4.12 3.62-4.12 2.89 0 3.71 1.99 3.71 4.71h-5.4c.11 1.26.99 1.98 2.24 1.98zM21.64 80.53V13.45h23.92L69.37 59h.2l-.3-45.55h17.16v67.08H63.12L38.49 34.69h-.2l.61 45.84H21.64zm45.11 9.98-2.08 2.21h-1.26l1.26-2.21h2.08zm-16.27 11.08h-2.89V91.01h2.89c3.24 0 6.11 1.09 6.11 5.29s-2.87 5.29-6.11 5.29zm14.56-1.3c.99 0 1.83-.36 2.59-.79v1.65c-.74.41-1.59.62-2.68.62-2.58 0-4.08-1.48-4.08-4.05 0-2.26 1.2-4.12 3.62-4.12 2.89 0 3.71 1.99 3.71 4.71h-5.39c.09 1.26.97 1.98 2.23 1.98zm12.14 1.48c-.86 0-1.58-.21-2.29-1.07h-.03v4.08h-2.03v-11h1.94v1.11h.03c.45-.76 1.23-1.29 2.42-1.29 2.39 0 3.27 1.91 3.27 4.06.01 2.14-.87 4.11-3.31 4.11zm12.69-.18c-.08-.41-.08-.92-.09-1.17h-.03c-.47.86-1.48 1.35-2.41 1.35-1.38 0-2.73-.83-2.73-2.32 0-1.17.56-1.85 1.33-2.23.77-.38 1.77-.45 2.62-.45h1.12c0-1.26-.56-1.68-1.76-1.68-.86 0-1.73.33-2.41.85l-.06-1.74c.79-.36 1.85-.59 2.71-.59 2.38 0 3.36.99 3.36 3.29v1a52.01 52.01 0 0 0 .12 3.7h-1.77zm11.34-5.88c-.18-.1-.55-.17-.91-.17-1.65 0-1.65 2.06-1.65 3.18v2.86h-2.03v-7.8h1.8v1.77h.03c.09-.73.92-1.96 2.14-1.96.2 0 .41 0 .62.06v2.06zm7.42 6.06c-1.59 0-2.47-.99-2.47-2.53v-3.97h-1.5v-1.49h1.5v-1.56l2.03-.65v2.21h1.8v1.49h-1.8v3.64c0 .67.18 1.29.96 1.29.36 0 .71-.08.92-.21l.06 1.61c-.42.11-.89.17-1.5.17zm9.46-1.48c.99 0 1.83-.36 2.59-.79v1.65c-.74.41-1.59.62-2.68.62-2.58 0-4.08-1.48-4.08-4.05 0-2.26 1.2-4.12 3.62-4.12 2.89 0 3.71 1.99 3.71 4.71h-5.4c.1 1.26.98 1.98 2.24 1.98zm-24.6-44.74c0-16.63 13.22-26.24 30.58-26.24s30.57 9.61 30.57 26.24c0 16.53-13.22 26.14-30.57 26.14-17.36 0-30.58-9.61-30.58-26.14zm43.81 46.04h-2.03v-4.65c0-.73 0-1.76-1.17-1.76-1.35 0-1.52 1.61-1.52 2.62v3.79h-2.03v-4.65c0-.73 0-1.76-1.17-1.76-1.35 0-1.52 1.61-1.52 2.62v3.79h-2.03v-7.8h1.89v1.09h.03c.64-.96 1.56-1.27 2.32-1.27 1.09 0 1.86.41 2.3 1.38.47-.94 1.49-1.38 2.44-1.38 1.92 0 2.47 1.32 2.47 3.06v4.92zm8.74-1.3c.99 0 1.83-.36 2.59-.79v1.65c-.74.41-1.59.62-2.68.62-2.58 0-4.08-1.48-4.08-4.05 0-2.26 1.2-4.12 3.62-4.12 2.89 0 3.71 1.99 3.71 4.71h-5.4c.1 1.26.98 1.98 2.24 1.98zm14.96 1.3h-2.03v-4.17c0-.95-.02-2.24-1.32-2.24-1.47 0-1.79 1.59-1.79 2.59v3.82h-2.03v-7.8h1.92v1.06h.03c.64-.89 1.5-1.24 2.56-1.24 1.85 0 2.65 1.3 2.65 3.06v4.92zm8.25.18c-1.59 0-2.47-.99-2.47-2.53v-3.97h-1.5v-1.49h1.5v-1.56l2.03-.65v2.21h1.8v1.49h-1.8v3.64c0 .67.18 1.29.95 1.29.36 0 .71-.08.92-.21l.06 1.61c-.41.11-.88.17-1.49.17zm16.7-1.48c.99 0 1.83-.36 2.59-.79v1.65c-.74.41-1.59.62-2.68.62-2.58 0-4.08-1.48-4.08-4.05 0-2.26 1.2-4.12 3.62-4.12 2.89 0 3.71 1.99 3.71 4.71h-5.4c.1 1.26.98 1.98 2.24 1.98zm9.67 1.48c-.77 0-1.56-.14-2.3-.33l.12-1.67c.64.32 1.3.52 2 .52.51 0 1.33-.2 1.33-.96 0-1.53-3.53-.48-3.53-3.3 0-1.68 1.47-2.42 3.06-2.42.95 0 1.58.15 2.21.29l-.14 1.53c-.62-.21-1.07-.33-1.82-.33-.55 0-1.2.2-1.2.86 0 1.24 3.53.46 3.53 3.27.01 1.81-1.61 2.54-3.26 2.54zm3.36-57.47c-2.02-.58-4.04-.58-6.16-.58-8.48 0-13.22 5.86-13.22 15.67v21.14h-18.16V30.46h16.55v9.23h.2c3.13-6.34 7.67-10.38 15.54-10.38 2.12 0 4.34.29 6.16.58l-.91 14.41zm7.65 57.47c-1.59 0-2.47-.99-2.47-2.53v-3.97h-1.5v-1.49h1.5v-1.56l2.03-.65v2.21h1.8v1.49h-1.8v3.64c0 .67.18 1.29.95 1.29.36 0 .71-.08.92-.21l.06 1.61c-.41.11-.88.17-1.49.17zm15.11-.18h-2.03V90.22h2.03v11.37zm9.92 0c-.08-.41-.08-.92-.09-1.17h-.03c-.47.86-1.49 1.35-2.41 1.35-1.38 0-2.73-.83-2.73-2.32 0-1.17.56-1.85 1.33-2.23.77-.38 1.77-.45 2.62-.45h1.12c0-1.26-.56-1.68-1.76-1.68-.86 0-1.73.33-2.41.85l-.06-1.74c.79-.36 1.85-.59 2.71-.59 2.38 0 3.36.99 3.36 3.29v1a52.01 52.01 0 0 0 .12 3.7h-1.77zm-3.94-11.08h2.08l1.26 2.21h-1.26l-2.08-2.21zm30.95 8.28c-1.04 0-1.88-.69-2.19-1.62h-15.2v-1.42h15.2c.3-.93 1.15-1.62 2.19-1.62 1.29 0 2.33 1.04 2.33 2.33s-1.05 2.33-2.33 2.33zm2.71-18.26h-16.75V71.6h-.2c-2.32 5.57-9.69 10.09-18.06 10.09-15.64 0-24.02-12.3-24.02-27.1 0-12.3 7.97-25.28 22.5-25.28 7.27 0 13.42 1.83 18.06 7.59h.2V8.45h18.27v72.08z"/><path class="st0" d="M228.34 99.33c0 .67.56.96 1.29.96.62 0 1.11-.27 1.42-.7.33-.44.42-1 .42-1.61h-.88c-.9 0-2.25.15-2.25 1.35zM232.11 42.57c-7.06 0-11 5.77-11 12.4 0 7.98 4.14 13.46 11 13.46 6.05 0 11.1-5.48 11.1-12.78 0-7.6-4.44-13.08-11.1-13.08zM31.95 95.09c-1.14 0-1.71.79-1.8 1.83h3.46c-.07-.99-.52-1.83-1.66-1.83z"/></svg>