<svg width="17.992" height="27.408" xmlns="http://www.w3.org/2000/svg"><ellipse data-name="Ellipse 37" cx="9.003" cy="4.659" rx="6.241" ry="3.909" fill="none" stroke="#06475e" stroke-linecap="round" stroke-linejoin="round" stroke-width="1.5"/><path data-name="Tracé 1990" d="M4.06 10.77a2.486 2.486 0 0 0-.7.36 5.234 5.234 0 0 0-2.61 4.266c0 3.228 3.692 5.845 8.246 5.845s8.246-2.617 8.246-5.845a5.275 5.275 0 0 0-2.7-4.326 3 3 0 0 0-.747-.328" fill="none" stroke="#06475e" stroke-linecap="round" stroke-linejoin="round" stroke-width="1.5"/><path data-name="Ligne 31" fill="none" stroke="#06475e" stroke-linecap="round" stroke-linejoin="round" stroke-width="1.5" d="M9.003 21.387v5.271"/><path data-name="Tracé 1991" d="M11.575 15.711a2.811 2.811 0 0 0 1.988-2.359v-5.9" fill="none" stroke="#06475e" stroke-linecap="round" stroke-linejoin="round" stroke-width="1.5"/><path data-name="Tracé 1992" d="M4.443 7.326v6.023a2.811 2.811 0 0 0 1.988 2.359" fill="none" stroke="#06475e" stroke-linecap="round" stroke-linejoin="round" stroke-width="1.5"/></svg>